<?xml version="1.0" standalone="no"?>
<!DOCTYPE svg PUBLIC "-//W3C//DTD SVG 20010904//EN"
 "https://www.w3.org/TR/2001/REC-SVG-20010904/DTD/svg10.dtd">
<svg version="1.0" xmlns="https://www.w3.org/2000/svg"
 width="260.000000pt" height="260.000000pt" viewBox="0 0 260.000000 260.000000"
 preserveAspectRatio="xMidYMid meet">
<metadata>
Created by potrace 1.14, written by Peter Selinger 2001-2017
</metadata>
<g transform="translate(0.000000,260.000000) scale(0.100000,-0.100000)"
fill="#000000" stroke="none">
<path d="M0 1300 l0 -1300 1300 0 1300 0 0 1300 0 1300 -1300 0 -1300 0 0
-1300z m1623 740 c21 -4 41 -11 44 -13 3 -3 -6 -52 -19 -109 l-24 -103 -76 0
c-61 0 -80 -4 -97 -19 -25 -23 -44 -80 -39 -121 l3 -30 103 -3 102 -3 0 -109
0 -109 -102 -3 -103 -3 -3 -412 -2 -413 -145 0 -145 0 -2 413 -3 412 -72 3
-73 3 0 109 0 109 73 3 72 3 6 90 c11 178 89 274 249 312 57 13 181 10 253 -7z"/>
</g>
</svg>
